HIERARCHY
ROOT Hips
{
	OFFSET 0.000000 0.000000 0.000000
	CHANNELS 6 Xposition Yposition Zposition Zrotation Xrotation Yrotation
	JOINT RightUpLeg
	{
		OFFSET -10.032200 0.000000 0.000000
		CHANNELS 3 Zrotation Xrotation Yrotation
		JOINT RightLeg
		{
			OFFSET 0.000000 -40.977000 0.000000
			CHANNELS 3 Zrotation Xrotation Yrotation
			JOINT RightFoot
			{
				OFFSET 0.000000 -38.933200 0.000000
				CHANNELS 3 Zrotation Xrotation Yrotation
				JOINT RightToe
				{
					OFFSET 0.000000 -1.977400 9.184000
					CHANNELS 3 Zrotation Xrotation Yrotation
					JOINT RightToeEnd
					{
						OFFSET 0.000000 2.335600 6.099100
						CHANNELS 3 Zrotation Xrotation Yrotation
						End Site
						{
						    OFFSET 0.000000 1.788000 4.669400
						}
					}
				}
			}
		}
	}
	JOINT LeftUpLeg
	{
		OFFSET 10.032200 0.000000 0.000000
		CHANNELS 3 Zrotation Xrotation Yrotation
		JOINT LeftLeg
		{
			OFFSET 0.000000 -40.977000 0.000000
			CHANNELS 3 Zrotation Xrotation Yrotation
			JOINT LeftFoot
			{
				OFFSET 0.000000 -38.933200 0.000000
				CHANNELS 3 Zrotation Xrotation Yrotation
				JOINT LeftToe
				{
					OFFSET 0.000000 -1.977400 9.184000
					CHANNELS 3 Zrotation Xrotation Yrotation
					JOINT LeftToeEnd
					{
						OFFSET 0.000000 2.335600 6.099100
						CHANNELS 3 Zrotation Xrotation Yrotation
						End Site
						{
						    OFFSET 0.000000 1.788000 4.669400
						}
					}
				}
			}
		}
	}
	JOINT Spine
	{
		OFFSET 0.000000 16.960900 0.000000
		CHANNELS 3 Zrotation Xrotation Yrotation
		JOINT Spine1
		{
			OFFSET 0.000000 13.413900 0.000000
			CHANNELS 3 Zrotation Xrotation Yrotation
			JOINT Spine2
			{
				OFFSET 0.000000 10.384400 0.000000
				CHANNELS 3 Zrotation Xrotation Yrotation
				JOINT LeftShoulder
				{
					OFFSET 2.000000 10.384400 0.000000
					CHANNELS 3 Zrotation Xrotation Yrotation
					JOINT LeftArm
					{
						OFFSET 15.649100 0.000000 0.000000
						CHANNELS 3 Zrotation Xrotation Yrotation
						JOINT LeftForeArm
						{
							OFFSET 0.000000 -26.641600 0.000000
							CHANNELS 3 Zrotation Xrotation Yrotation
							JOINT LeftHand
							{
								OFFSET 0.000000 -23.740600 0.000000
								CHANNELS 3 Zrotation Xrotation Yrotation
								JOINT LeftFinger0
								{
									OFFSET 0.000000 -7.620900 0.000000
									CHANNELS 3 Zrotation Xrotation Yrotation
									End Site
									{
									    OFFSET 0.000000 -5.000000 0.000000
									}
								}
							}
						}
					}
				}
				JOINT RightShoulder
				{
					OFFSET -2.000000 10.384400 0.000000
					CHANNELS 3 Zrotation Xrotation Yrotation
					JOINT RightArm
					{
						OFFSET -15.649100 0.000000 0.000000
						CHANNELS 3 Zrotation Xrotation Yrotation
						JOINT RightForeArm
						{
							OFFSET 0.000000 -26.641600 0.000000
							CHANNELS 3 Zrotation Xrotation Yrotation
							JOINT RightHand
							{
								OFFSET 0.000000 -23.740600 0.000000
								CHANNELS 3 Zrotation Xrotation Yrotation
								JOINT RightFinger0
								{
									OFFSET 0.000000 -7.620900 0.000000
									CHANNELS 3 Zrotation Xrotation Yrotation
									End Site
									{
									    OFFSET 0.000000 -5.000000 0.000000
									}
								}
							}
						}
					}
				}
				JOINT Neck
				{
					OFFSET 0.000000 10.384400 0.000000
					CHANNELS 3 Zrotation Xrotation Yrotation
					JOINT Head
					{
						OFFSET 0.000000 10.146900 0.000000
						CHANNELS 3 Zrotation Xrotation Yrotation
						JOINT HeadTip
						{
							OFFSET 0.000000 10.000000 0.000000
							CHANNELS 3 Zrotation Xrotation Yrotation
							End Site
							{
							    OFFSET 0.000000 5.000000 0.000000
							}
						}
					}
				}
			}
		}
	}
}
MOTION
Frames:	14
Frame Time:	0.033332
30.882000 84.457300 11.782300 4.514676 -4.780597 34.692212 -7.474051 -17.746694 -24.895785 -0.000000 14.440975 -0.000000 13.394414 25.730558 2.913566 0.000000 -0.939610 -0.000000 0.000000 0.000000 -0.000000 3.157939 -1.707538 26.166856 0.000000 29.954897 -0.000000 -3.180197 3.186214 -6.163892 0.000000 -8.706891 -0.000000 0.000000 0.000000 0.000000 7.264427 9.226419 -6.247395 0.000000 6.561204 -0.000000 0.000000 0.000000 -0.000000 7.548273 -0.000000 1.884870 82.551987 -48.496239 64.286024 -180.000037 -52.790152 -180.000037 29.916570 -1.157562 3.649678 -0.000000 0.000000 -0.000000 0.175601 -0.000000 3.422010 -67.515262 -14.973847 -43.890282 -179.999708 -65.251551 -179.999522 -8.673928 12.454039 32.490343 0.000000 0.000000 -0.000000 0.000000 0.000000 -0.000000 -10.889526 13.590978 -20.724740 -0.000000 0.000000 0.000000 
30.340500 84.296400 10.268800 4.946399 -4.513408 34.941039 -8.363152 -18.605564 -25.463409 -0.000000 14.328570 -0.000000 13.379378 25.714486 3.230319 -0.000000 -0.711927 -0.000000 0.000000 0.000000 -0.000000 1.552594 -1.605299 25.892473 -0.000000 27.604944 0.000000 -1.595605 1.626840 -5.095092 0.000000 -7.775573 0.000000 0.000000 -0.000000 -0.000000 5.705586 9.150790 -6.831403 -0.000000 6.674256 -0.000000 -0.000000 0.000000 -0.000000 7.652402 0.000000 2.096376 82.514576 -48.651262 63.250571 -180.000037 -51.943700 -180.000037 32.052168 -2.563406 1.860794 0.000000 0.000000 -0.000000 1.377991 0.000000 2.840084 -66.071865 -13.939057 -41.407476 -179.999706 -65.389562 -179.999520 -5.198518 14.454496 32.113680 0.000000 0.000000 -0.000000 -0.000000 0.000000 -0.000000 -10.427265 13.599772 -20.877991 -0.000000 0.000000 -0.000000 
29.704300 84.455200 8.835900 5.593617 -4.363595 34.654973 -8.759091 -18.690469 -25.462833 -0.000000 13.132781 -0.000000 12.312127 24.423900 3.852995 0.000000 -0.647952 -0.000000 0.000000 0.000000 0.000000 0.712231 -2.695837 25.357519 -0.000000 27.694913 -0.000000 -1.639229 3.494491 -4.273591 0.000000 -6.812551 -0.000000 0.000000 0.000000 -0.000000 3.993818 9.430375 -6.512506 0.000000 6.902108 -0.000000 0.000000 0.000000 -0.000000 7.836445 -0.000000 2.335082 81.664016 -49.219349 61.652706 180.000037 -50.893982 -180.000037 34.639313 -2.944986 1.875827 -0.000000 -0.000000 -0.000000 2.042488 -0.000000 2.127607 -63.482424 -12.527422 -38.130697 -179.999707 -65.274118 -179.999522 -2.310494 15.978084 31.173794 -0.000000 -0.000000 0.000000 0.000000 0.000000 -0.000000 -10.295516 13.466787 -20.741728 -0.000000 0.000000 -0.000000 
29.139500 84.609300 7.507800 5.842218 -4.253603 33.723692 -8.614951 -18.494292 -26.040128 0.000000 11.092478 -0.000000 12.080632 23.721188 3.965217 -0.000000 -0.201445 -0.000000 -0.000000 0.000000 -0.000000 0.262376 -2.714688 27.753269 -0.000000 26.206714 -0.000000 -0.921853 4.428755 -5.412187 0.000000 -6.863307 -0.000000 -0.000000 0.000000 0.000000 2.849126 9.231643 -5.741800 -0.000000 7.072596 -0.000000 -0.000000 -0.000000 -0.000000 7.542575 -0.000000 2.549939 81.306737 -49.502120 60.312790 180.000037 -50.389422 -180.000037 37.091416 -2.581709 2.296604 -0.000000 0.000000 -0.000000 1.841023 0.000000 2.126330 -60.665466 -10.372765 -34.309866 -179.999707 -65.272056 -179.999522 0.430738 17.589822 30.676730 -0.000000 0.000000 0.000000 -0.000000 -0.000000 -0.000000 -10.712149 13.751884 -19.953089 0.000000 0.000000 -0.000000 
28.623900 84.766000 6.269700 6.089866 -4.018984 32.595975 -8.767257 -18.414498 -27.520144 -0.000000 9.435352 -0.000000 12.184055 22.703535 1.989955 0.000000 0.458227 0.000000 0.000000 0.000000 -0.000000 -0.680201 -2.962207 28.272273 -0.000000 24.651963 -0.000000 -0.377879 5.420921 -4.611360 -0.000000 -7.250643 0.000000 -0.000000 0.000000 -0.000000 1.655659 8.881317 -5.000628 0.000000 7.111137 0.000000 -0.000000 0.000000 0.000000 7.302724 0.000000 3.023581 81.020107 -49.760732 59.067460 -180.000037 -50.234431 180.000037 38.742060 -2.484437 2.211336 -0.000000 0.000000 -0.000000 2.015957 0.000000 1.829770 -58.808896 -9.475927 -30.291541 -179.999695 -66.032030 -179.999511 3.887632 19.531633 31.067887 0.000000 0.000000 -0.000000 -0.000000 0.000000 0.000000 -11.057166 14.014181 -19.073963 0.000000 0.000000 -0.000000 
27.981600 84.935300 5.246100 6.005088 -4.204799 31.906002 -8.706631 -18.083758 -29.880909 -0.000000 9.153884 -0.000000 11.625202 21.915121 -0.779000 0.000000 0.501413 -0.000000 -0.000000 -0.000000 0.000000 -0.717391 -3.294995 28.800065 -0.000000 23.796140 -0.000000 0.086758 6.393294 -4.268930 -0.000000 -7.491426 0.000000 -0.000000 -0.000000 0.000000 1.076129 8.746757 -4.722316 0.000000 7.050664 0.000000 -0.000000 -0.000000 -0.000000 7.325691 0.000000 3.296946 80.613082 -49.746325 57.983547 180.000037 -50.170064 180.000037 39.718504 -2.493784 1.992964 0.000000 0.000000 0.000000 2.388963 -0.000000 1.589476 -57.417054 -9.063733 -26.662247 -179.999681 -66.913870 -179.999498 7.338966 21.761493 32.522367 -0.000000 -0.000000 0.000000 -0.000000 -0.000000 -0.000000 -11.076937 14.274522 -18.362160 -0.000000 0.000000 0.000000 
27.296000 85.143900 4.370000 5.797586 -4.617742 31.151731 -8.685150 -17.803984 -30.839137 0.000000 11.035044 0.000000 10.672599 21.462557 -2.058891 -0.000000 0.394711 -0.000000 0.000000 0.000000 -0.000000 -0.459794 -3.396306 29.295565 0.000000 22.897073 0.000000 0.334987 7.451783 -3.904064 0.000000 -7.695473 0.000000 -0.000000 -0.000000 -0.000000 0.733500 8.668039 -4.411547 -0.000000 7.080324 0.000000 -0.000000 0.000000 -0.000000 7.290098 0.000000 3.348604 80.569115 -49.542370 57.080792 -180.000037 -50.057311 -180.000037 40.560834 -3.067515 0.945443 -0.000000 0.000000 -0.000000 3.145649 -0.000000 1.638436 -56.841599 -8.745645 -23.393885 -179.999665 -67.770164 -179.999484 9.630008 23.659028 33.478877 -0.000000 -0.000000 -0.000000 -0.000000 0.000000 -0.000000 -10.427380 14.439133 -17.304796 -0.000000 0.000000 0.000000 
26.633600 85.354100 3.563000 5.452408 -5.066880 30.231832 -8.736110 -17.678347 -30.144349 0.000000 14.381917 0.000000 10.114689 21.033726 -1.781438 -0.000000 -0.234305 0.000000 -0.000000 0.000000 -0.000000 -0.011088 -3.395714 30.106156 -0.000000 21.962259 -0.000000 0.695399 8.289155 -3.583161 -0.000000 -8.171771 -0.000000 0.000000 0.000000 -0.000000 0.733492 8.566968 -4.048382 -0.000000 7.094552 -0.000000 -0.000000 -0.000000 -0.000000 6.995340 0.000000 3.419489 80.705867 -49.264085 56.217230 180.000037 -49.932018 -180.000037 41.180211 -4.615062 -0.372548 -0.000000 -0.000000 -0.000000 3.517935 -0.000000 1.714886 -56.027913 -8.726176 -20.289391 -179.999649 -68.605844 -179.999469 10.487063 24.584109 34.328228 -0.000000 0.000000 -0.000000 -0.000000 -0.000000 -0.000000 -9.937622 14.951088 -16.509176 0.000000 0.000000 -0.000000 
25.964800 85.589600 2.869200 4.959638 -5.494681 29.509143 -8.795026 -17.256455 -29.306767 0.000000 17.948759 0.000000 9.614774 20.276156 -1.369019 0.000000 -1.047543 0.000000 0.000000 0.000000 -0.000000 0.651768 -3.432702 30.904902 0.000000 21.095457 -0.000000 0.852819 9.135981 -3.410561 0.000000 -8.695194 0.000000 0.000000 -0.000000 0.000000 1.021912 8.318762 -3.844407 0.000000 7.056496 -0.000000 -0.000000 0.000000 0.000000 6.518598 0.000000 3.439370 80.826627 -49.146946 55.160368 -180.000037 -49.689655 -180.000037 41.637255 -6.323037 -1.931585 -0.000000 0.000000 -0.000000 3.634948 0.000000 1.691518 -54.859791 -8.818213 -17.067114 -179.999633 -69.392737 -179.999453 9.971441 24.795127 34.933470 -0.000000 -0.000000 -0.000000 -0.000000 0.000000 0.000000 -9.353680 15.790670 -15.366435 -0.000000 0.000000 0.000000 
25.260400 85.827400 2.295900 4.440878 -5.834330 29.186866 -8.987419 -16.340535 -28.823207 0.000000 21.194385 0.000000 8.989443 18.683408 -2.261658 -0.000000 -2.336901 -0.000000 -0.000000 -0.000000 0.000000 1.374479 -3.523436 31.485001 -0.000000 20.251594 0.000000 0.999276 9.977784 -3.429714 0.000000 -9.263360 -0.000000 0.000000 0.000000 0.000000 1.371816 7.950099 -3.829933 -0.000000 7.003587 -0.000000 -0.000000 -0.000000 0.000000 6.077499 -0.000000 3.400155 81.168726 -49.373934 54.386257 180.000037 -49.375084 -180.000037 41.111559 -7.117164 -3.416803 0.000000 0.000000 0.000000 3.746147 -0.000000 1.557549 -53.546914 -8.643895 -13.808377 -179.999620 -69.972313 -179.999441 9.229945 24.308216 35.097746 -0.000000 0.000000 -0.000000 -0.000000 -0.000000 0.000000 -8.622313 16.789476 -14.478322 0.000000 0.000000 -0.000000 
24.565600 86.032600 1.838800 4.031257 -6.079556 29.038479 -9.403312 -14.938734 -28.629294 -0.000000 23.983784 -0.000000 7.982069 16.461111 -4.500722 0.000000 -3.468729 -0.000000 -0.000000 0.000000 -0.000000 1.997426 -3.595575 31.943626 -0.000000 19.442781 -0.000000 1.061299 10.688941 -3.430229 -0.000000 -9.733772 -0.000000 0.000000 0.000000 -0.000000 1.643867 7.473149 -3.710274 0.000000 6.990687 -0.000000 -0.000000 0.000000 -0.000000 5.724663 0.000000 3.393892 81.711242 -50.040436 53.768446 180.000037 -49.157857 -180.000037 40.408362 -7.224110 -5.116774 -0.000000 0.000000 -0.000000 3.734291 -0.000000 1.306924 -51.999551 -8.089547 -10.183395 -179.999610 -70.421999 -179.999432 8.068569 23.724942 35.129317 -0.000000 0.000000 -0.000000 -0.000000 0.000000 -0.000000 -7.969540 17.808650 -13.973432 -0.000000 0.000000 -0.000000 
23.874600 86.189900 1.481500 3.724509 -6.247668 28.789987 -9.857386 -13.137636 -28.397794 0.000000 26.036500 -0.000000 6.808188 14.115981 -7.481268 0.000000 -4.053121 0.000000 0.000000 0.000000 -0.000000 2.528479 -3.673532 32.318480 -0.000000 18.760172 -0.000000 0.946492 11.267810 -3.445721 0.000000 -10.225199 -0.000000 -0.000000 0.000000 0.000000 1.838986 6.945224 -3.326208 -0.000000 6.965182 -0.000000 -0.000000 0.000000 -0.000000 5.364664 0.000000 3.312374 82.542967 -50.592943 53.300863 180.000037 -48.975559 -180.000037 39.668554 -7.339146 -7.131172 -0.000000 0.000000 0.000000 3.723380 0.000000 1.138722 -50.436730 -7.125803 -6.476537 -179.999595 -71.024934 -179.999418 7.578273 23.238007 35.177266 -0.000000 0.000000 -0.000000 -0.000000 0.000000 -0.000000 -7.551711 18.830310 -13.420875 -0.000000 0.000000 0.000000 
23.177900 86.292100 1.203900 3.464224 -6.300482 28.398924 -10.295311 -11.079647 -28.241419 0.000000 27.343524 -0.000000 5.633447 12.236467 -9.888938 0.000000 -4.977694 0.000000 -0.000000 0.000000 -0.000000 2.982276 -3.900804 32.479350 -0.000000 18.310059 -0.000000 0.998595 11.675117 -3.290470 0.000000 -10.453831 0.000000 0.000000 0.000000 -0.000000 1.995537 6.322530 -2.754732 -0.000000 6.913918 -0.000000 0.000000 0.000000 0.000000 5.014110 0.000000 3.340893 83.379708 -51.013949 52.605870 -180.000037 -48.989889 180.000037 39.728488 -7.585825 -7.906193 -0.000000 0.000000 -0.000000 3.769153 -0.000000 0.948108 -48.899328 -6.120596 -2.630350 -179.999567 -72.092465 -179.999391 7.794935 23.359994 35.175290 -0.000000 0.000000 0.000000 0.000000 0.000000 0.000000 -7.304888 19.926906 -12.956619 0.000000 -0.000000 -0.000000 
22.458800 86.354000 0.993000 3.270773 -6.309415 27.795492 -10.644110 -8.813039 -28.059263 -0.000000 27.966294 -0.000000 4.540275 10.653593 -11.244681 -0.000000 -5.292995 -0.000000 0.000000 0.000000 0.000000 3.399592 -4.135079 32.647498 -0.000000 17.958781 -0.000000 0.965010 12.075205 -3.034244 -0.000000 -10.407049 0.000000 -0.000000 -0.000000 -0.000000 2.124473 5.653709 -2.003660 -0.000000 6.968843 -0.000000 -0.000000 0.000000 -0.000000 4.586414 0.000000 3.417679 84.138226 -51.196630 52.166736 -180.000037 -49.087000 180.000037 40.020383 -6.751700 -6.924008 -0.000000 -0.000000 0.000000 3.919921 0.000000 0.811371 -47.375072 -5.222078 1.094207 -179.999520 -73.620775 -179.999346 8.129003 24.122549 35.634764 -0.000000 0.000000 -0.000000 -0.000000 0.000000 -0.000000 -7.211109 20.932157 -12.433262 0.000000 0.000000 -0.000000 
